# OBJ Exporter v1.2 by T3D(fixed 2019-08-19)
v -112.376 33.0827 7.35168
v 112.376 33.0827 7.35178
v 112.376 33.0827 6.30154
v -112.376 33.0827 6.30144
v -112.376 242.606 7.35172
v -112.376 33.0827 7.35168
v -112.376 33.0827 6.30144
v -112.376 242.606 6.30147
v 112.376 242.606 7.35181
v -112.376 242.606 7.35172
v -112.376 242.606 6.30147
v 112.376 242.606 6.30157
v 112.376 33.0827 7.35178
v 112.376 242.606 7.35181
v 112.376 242.606 6.30157
v 112.376 33.0827 6.30154
v -113.951 244.182 7.35172
v 113.952 244.182 7.35181
v 113.952 244.182 6.30157
v -113.951 244.182 6.30147
v -113.951 31.5073 7.35168
v -113.951 244.182 7.35172
v -113.951 244.182 6.30147
v -113.951 31.5073 6.30144
v 113.952 31.5073 7.35178
v -113.951 31.5073 7.35168
v -113.951 31.5073 6.30144
v 113.952 31.5073 6.30154
v 113.952 244.182 7.35181
v 113.952 31.5073 7.35178
v 113.952 31.5073 6.30154
v 113.952 244.182 6.30157
v -112.376 242.606 7.35172
v 113.952 244.182 7.35181
v -113.951 244.182 7.35172
v -112.376 33.0827 7.35168
v -113.951 31.5073 7.35168
v 112.376 33.0827 7.35178
v 113.952 31.5073 7.35178
v 112.376 242.606 7.35181
v 161.212 230.529 -1.0501
v 197.971 230.529 -1.05008
v 197.971 230.529 -2.10033
v 161.212 230.529 -2.10034
v 161.212 36.7585 -1.05013
v 161.212 230.529 -1.0501
v 161.212 230.529 -2.10034
v 161.212 36.7585 -2.10037
v 197.971 36.7585 -1.05011
v 161.212 36.7585 -1.05013
v 161.212 36.7585 -2.10037
v 197.971 36.7585 -2.10036
v 197.971 230.529 -1.05008
v 197.971 36.7585 -1.05011
v 197.971 36.7585 -2.10036
v 197.971 230.529 -2.10033
v 162.263 37.8088 -1.05013
v 196.921 37.8088 -1.05011
v 196.921 37.8088 -2.10036
v 162.263 37.8088 -2.10037
v 162.263 37.8088 -2.10037
v 162.263 229.478 -2.10034
v 162.263 229.478 -1.0501
v 196.921 37.8088 -1.05011
v 196.921 229.478 -1.05008
v 196.921 229.478 -2.10033
v 196.921 37.8088 -2.10036
v 196.921 37.8088 -1.05011
v 197.971 36.7585 -1.05011
v 197.971 230.529 -1.05008
v 196.921 229.478 -1.05008
v 161.212 230.529 -1.0501
v 161.212 36.7585 -1.05013
v 162.263 229.478 -1.0501
v -197.971 230.529 -1.05029
v -161.212 230.529 -1.05028
v -161.212 230.529 -2.10052
v -197.971 230.529 -2.10054
v -197.971 36.7586 -1.05032
v -197.971 230.529 -1.05029
v -197.971 230.529 -2.10054
v -197.971 36.7586 -2.10057
v -161.212 36.7586 -1.05031
v -197.971 36.7586 -1.05032
v -197.971 36.7586 -2.10057
v -161.212 36.7586 -2.10055
v -161.212 230.529 -1.05028
v -161.212 36.7586 -1.05031
v -161.212 36.7586 -2.10055
v -161.212 230.529 -2.10052
v -196.921 229.478 -2.10054
v -162.263 229.478 -2.10052
v -162.263 229.478 -1.05028
v -162.263 37.8089 -1.05031
v -162.263 229.478 -1.05028
v -162.263 229.478 -2.10052
v -162.263 37.8089 -2.10055
v -196.921 37.8089 -1.05032
v -196.921 229.478 -1.05029
v -197.971 36.7586 -1.05032
v -162.263 37.8089 -1.05031
v -161.212 36.7586 -1.05031
v -197.971 230.529 -1.05029
v -134.956 265.187 4.41099
v -134.956 265.187 -7.35174
v -134.956 2.44141e-05 -7.35174
v -134.956 2.44141e-05 4.41099
v -143.568 265.187 4.41099
v -134.956 265.187 4.41099
v -134.956 2.44141e-05 4.41099
v -143.568 2.44141e-05 4.41099
v -143.568 265.187 2.10045
v -143.568 265.187 4.41099
v -143.568 2.44141e-05 4.41099
v -143.568 2.44141e-05 2.10045
v -145.459 265.187 2.10045
v -143.568 265.187 2.10045
v -143.568 2.44141e-05 2.10045
v -145.459 2.44141e-05 2.10045
v -145.459 265.187 6.30143
v -145.459 265.187 2.10045
v -145.459 2.44141e-05 2.10045
v -145.459 2.44141e-05 6.30143
v 145.459 265.187 6.30155
v -145.459 265.187 6.30143
v -145.459 2.44141e-05 6.30143
v 145.459 2.44141e-05 6.30155
v 145.459 265.187 2.10058
v 145.459 265.187 6.30155
v 145.459 2.44141e-05 6.30155
v 145.459 2.44141e-05 2.10058
v 143.568 265.187 2.10058
v 145.459 265.187 2.10058
v 145.459 2.44141e-05 2.10058
v 143.568 2.44141e-05 2.10057
v 143.568 265.187 4.41111
v 143.568 265.187 2.10058
v 143.568 2.44141e-05 2.10057
v 143.568 2.44141e-05 4.41111
v 134.956 265.187 4.41111
v 143.568 265.187 4.41111
v 143.568 2.44141e-05 4.41111
v 134.956 2.44141e-05 4.41111
v 134.956 265.187 -7.35162
v 134.956 265.187 4.41111
v 134.956 2.44141e-05 4.41111
v 134.956 2.44141e-05 -7.35162
v -134.956 265.187 -7.35174
v 134.956 265.187 -7.35162
v 134.956 2.44141e-05 -7.35162
v -134.956 2.44141e-05 -7.35174
v -145.459 2.44141e-05 2.10045
v -143.568 2.44141e-05 2.10045
v -143.568 2.44141e-05 4.41099
v -145.459 2.44141e-05 6.30143
v -134.956 2.44141e-05 4.41099
v -134.956 2.44141e-05 -7.35174
v 134.956 2.44141e-05 -7.35162
v 134.956 2.44141e-05 4.41111
v 143.568 2.44141e-05 4.41111
v 145.459 2.44141e-05 6.30155
v 145.459 2.44141e-05 2.10058
v 143.568 2.44141e-05 2.10057
v 145.459 265.187 2.10058
v 143.568 265.187 2.10058
v 143.568 265.187 4.41111
v 134.956 265.187 4.41111
v 134.956 265.187 -7.35162
v -134.956 265.187 -7.35174
v -134.956 265.187 4.41099
v -143.568 265.187 4.41099
v -143.568 265.187 2.10045
v -145.459 265.187 2.10045
v -145.459 265.187 6.30143
v 145.459 265.187 6.30155
v 212.674 245.232 -0.524396
v 146.509 245.232 -0.524424
v 146.509 22.0551 -0.52446
v 212.674 22.0551 -0.524432
v 146.509 22.0551 -0.52446
v 146.509 245.232 -0.524424
v 212.674 245.232 -0.524396
v 212.674 22.0551 -0.524432
v 134.956 265.187 -2.10032
v 224.227 265.187 -2.10028
v 224.227 265.187 -7.3515
v 134.956 265.187 -7.35154
v 224.227 0 -2.10032
v 134.956 0 -2.10036
v 134.956 0 -7.35158
v 224.227 0 -7.35154
v 224.227 265.187 -2.10028
v 224.227 0 -2.10032
v 224.227 0 -7.35154
v 224.227 265.187 -7.3515
v 134.956 0 -7.35158
v 134.956 265.187 -7.35154
v 224.227 265.187 -7.3515
v 224.227 0 -7.35154
v 224.227 265.187 -2.10028
v 134.956 265.187 -2.10032
v 134.956 0 -2.10036
v 224.227 0 -2.10032
v -146.509 245.232 -0.524589
v -212.674 245.232 -0.524618
v -212.674 22.0552 -0.524654
v -146.509 22.0552 -0.524626
v -212.674 22.0552 -0.524654
v -212.674 245.232 -0.524618
v -146.509 245.232 -0.524589
v -146.509 22.0552 -0.524626
v -224.227 265.187 -2.10051
v -134.956 265.187 -2.10047
v -134.956 265.187 -7.35169
v -224.227 265.187 -7.35173
v -224.227 9.76563e-05 -2.10055
v -224.227 265.187 -2.10051
v -224.227 265.187 -7.35173
v -224.227 9.76563e-05 -7.35177
v -134.956 9.76563e-05 -2.10051
v -224.227 9.76563e-05 -2.10055
v -224.227 9.76563e-05 -7.35177
v -134.956 9.76563e-05 -7.35174
v -224.227 9.76563e-05 -7.35177
v -224.227 265.187 -7.35173
v -134.956 265.187 -7.35169
v -134.956 9.76563e-05 -7.35174
v -134.956 265.187 -2.10047
v -224.227 265.187 -2.10051
v -224.227 9.76563e-05 -2.10055
v -134.956 9.76563e-05 -2.10051
vn 0 1 0
vn 0 1 0
vn 0 1 0
vn 0 1 0
vn 1 0 0
vn 1 0 0
vn 1 0 0
vn 1 0 0
vn 0 -1 0
vn 0 -1 0
vn 0 -1 0
vn 0 -1 0
vn -1 0 0
vn -1 0 0
vn -1 0 0
vn -1 0 0
vn 0 1 0
vn 0 1 0
vn 0 1 0
vn 0 1 0
vn -1 0 0
vn -1 0 0
vn -1 0 0
vn -1 0 0
vn 0 -1 0
vn 0 -1 0
vn 0 -1 0
vn 0 -1 0
vn 1 0 0
vn 1 0 0
vn 1 0 0
vn 1 0 0
vn -3.43173e-07 -3.73932e-07 1
vn -6.77906e-07 -3.2476e-07 1
vn -4.57278e-07 -2.55574e-07 1
vn -4.54898e-07 -2.88294e-07 1
vn -5.38638e-07 -5.26315e-08 1
vn -6.76201e-07 -8.00532e-08 1
vn -7.57611e-07 1.88276e-07 1
vn -5.97043e-07 -3.48848e-07 1
vn 0 1 0
vn 0 1 0
vn 0 1 0
vn 0 1 0
vn -1 0 0
vn -1 0 0
vn -1 0 0
vn -1 0 0
vn 0 -1 0
vn 0 -1 0
vn 0 -1 0
vn 0 -1 0
vn 1 0 0
vn 1 0 0
vn 1 0 0
vn 1 0 0
vn 0 1 0
vn 0 1 0
vn 0 1 0
vn 0 1 0
vn 1 0 0
vn 1 0 0
vn 1 0 0
vn -1 0 0
vn -1 0 0
vn -1 0 0
vn -1 0 0
vn -4.8772e-07 -1.62131e-07 1
vn -6.04875e-07 -1.61493e-07 1
vn -4.84081e-07 -1.55515e-07 1
vn -3.81614e-07 -1.50444e-07 1
vn -6.54484e-07 -1.49881e-07 1
vn -6.94051e-07 -1.61973e-07 1
vn -6.94051e-07 -1.61973e-07 1
vn 0 1 0
vn 0 1 0
vn 0 1 0
vn 0 1 0
vn -1 0 0
vn -1 0 0
vn -1 0 0
vn -1 0 0
vn 0 -1 0
vn 0 -1 0
vn 0 -1 0
vn 0 -1 0
vn 1 0 0
vn 1 0 0
vn 1 0 0
vn 1 0 0
vn 0 -1 0
vn 0 -1 0
vn 0 -1 0
vn -1 0 0
vn -1 0 0
vn -1 0 0
vn -1 0 0
vn -3.0471e-07 -1.38673e-07 1
vn -5.32061e-07 -1.62373e-07 1
vn -5.18607e-07 -1.23128e-07 1
vn -4.45992e-07 8.86796e-08 1
vn -4.48451e-07 1.72291e-07 1
vn -7.8175e-07 -1.61012e-07 1
vn -1 2.84735e-15 -1.01345e-06
vn -1 0 -1.01345e-06
vn -1 2.84735e-15 -1.01345e-06
vn -1 5.69469e-15 -1.01345e-06
vn 4.54198e-07 2.10717e-09 -1
vn 5.19084e-07 4.21434e-09 -1
vn 4.54198e-07 2.10717e-09 -1
vn 3.89313e-07 0 -1
vn 1 0 0
vn 1 0 0
vn 1 0 0
vn 1 0 0
vn 4.92647e-07 2.80956e-09 -1
vn 4.92647e-07 2.80956e-09 -1
vn 4.92647e-07 2.80956e-09 -1
vn 4.92647e-07 2.80956e-09 -1
vn -1 -3.98629e-15 2.83766e-06
vn -1 -7.97257e-15 2.83766e-06
vn -1 -3.98629e-15 2.83766e-06
vn -1 0 2.83766e-06
vn -4.27697e-07 0 1
vn -4.27697e-07 0 1
vn -4.27697e-07 0 1
vn -4.27697e-07 0 1
vn 1 0 0
vn 1 0 0
vn 1 0 0
vn 1 0 0
vn 3.44855e-07 3.86315e-09 -1
vn 2.9559e-07 3.51195e-09 -1
vn 3.44855e-07 3.86315e-09 -1
vn 3.9412e-07 4.21434e-09 -1
vn -1 0 0
vn -1 0 0
vn -1 0 0
vn -1 0 0
vn 4.75826e-07 0 -1
vn 4.75826e-07 0 -1
vn 4.75826e-07 0 -1
vn 4.75826e-07 0 -1
vn 1 0 1.01345e-06
vn 1 0 1.01345e-06
vn 1 0 1.01345e-06
vn 1 0 1.01345e-06
vn 4.30617e-07 0 -1
vn 4.30617e-07 0 -1
vn 4.30617e-07 0 -1
vn 4.30617e-07 0 -1
vn 0 -1 0
vn 0 -1 0
vn 0 -1 0
vn 0 -1 0
vn 0 -1 0
vn 0 -1 0
vn 0 -1 0
vn 0 -1 0
vn 0 -1 0
vn 0 -1 0
vn 0 -1 0
vn 0 -1 0
vn 0 1 0
vn 0 1 0
vn 0 1 0
vn 0 1 0
vn 0 1 0
vn 0 1 0
vn 0 1 0
vn 0 1 0
vn 0 1 0
vn 0 1 0
vn 0 1 0
vn 0 1 0
vn -4.27549e-07 -1.62018e-07 1
vn -4.28604e-07 -1.61705e-07 1
vn -4.27549e-07 -1.62018e-07 1
vn -4.26493e-07 -1.62331e-07 1
vn 4.27549e-07 1.62018e-07 -1
vn 4.28604e-07 1.61705e-07 -1
vn 4.27549e-07 1.62018e-07 -1
vn 4.26493e-07 1.62331e-07 -1
vn 0 1 0
vn 0 1 0
vn 0 1 0
vn 0 1 0
vn 0 -1 0
vn 0 -1 0
vn 0 -1 0
vn 0 -1 0
vn 1 0 0
vn 1 0 0
vn 1 0 0
vn 1 0 0
vn 4.25649e-07 1.62955e-07 -1
vn 4.25649e-07 1.62955e-07 -1
vn 4.25649e-07 1.62955e-07 -1
vn 4.25649e-07 1.62955e-07 -1
vn -4.31908e-07 -1.62955e-07 1
vn -4.33995e-07 -1.62252e-07 1
vn -4.31908e-07 -1.62955e-07 1
vn -4.29822e-07 -1.63657e-07 1
vn -4.28604e-07 -1.63165e-07 1
vn -4.30012e-07 -1.62748e-07 1
vn -4.28604e-07 -1.63165e-07 1
vn -4.27197e-07 -1.63583e-07 1
vn 4.28604e-07 1.63165e-07 -1
vn 4.30012e-07 1.62748e-07 -1
vn 4.28604e-07 1.63165e-07 -1
vn 4.27197e-07 1.63583e-07 -1
vn 0 1 0
vn 0 1 0
vn 0 1 0
vn 0 1 0
vn -1 0 0
vn -1 0 0
vn -1 0 0
vn -1 0 0
vn 0 -1 0
vn 0 -1 0
vn 0 -1 0
vn 0 -1 0
vn 4.17302e-07 1.65764e-07 -1
vn 4.25648e-07 1.62955e-07 -1
vn 4.17302e-07 1.65764e-07 -1
vn 4.08956e-07 1.68574e-07 -1
vn -4.30865e-07 -1.62603e-07 1
vn -4.33995e-07 -1.6155e-07 1
vn -4.30865e-07 -1.62603e-07 1
vn -4.27735e-07 -1.63657e-07 1
vt 0.609612 0.718096
vt 0.309817 0.718096
vt 0.309817 0.716695
vt 0.609612 0.716695
vt 0.711078 0.991118
vt 0.711078 0.711636
vt 0.712479 0.711636
vt 0.712479 0.991118
vt 0.610082 0.713037
vt 0.310287 0.713037
vt 0.310287 0.711636
vt 0.610082 0.711636
vt 0.00843171 0.713322
vt 0.287914 0.713322
vt 0.287914 0.714723
vt 0.0084317 0.714723
vt 0.310287 0.701518
vt 0.614285 0.701518
vt 0.614285 0.702919
vt 0.310287 0.702919
vt 0.00843171 0.708263
vt 0.292117 0.708263
vt 0.292117 0.709664
vt 0.0084317 0.709664
vt 0.614285 0.707978
vt 0.310287 0.707978
vt 0.310287 0.706577
vt 0.614285 0.706577
vt 0.613828 0.995321
vt 0.613828 0.711636
vt 0.615229 0.711636
vt 0.615229 0.995321
vt 0.00378773 0.983101
vt 0.305685 0.985203
vt 0.00168634 0.985203
vt 0.00378773 0.703619
vt 0.00168634 0.701518
vt 0.303583 0.703619
vt 0.305685 0.701518
vt 0.303583 0.983101
vt 0.375211 0.403035
vt 0.375211 0.452067
vt 0.37381 0.452067
vt 0.37381 0.403035
vt 0.722597 0.721754
vt 0.722597 0.980222
vt 0.721196 0.980222
vt 0.721196 0.721754
vt 0.359191 0.452067
vt 0.359191 0.403035
vt 0.360592 0.403035
vt 0.360592 0.452067
vt 0.716137 0.975163
vt 0.716137 0.716695
vt 0.717538 0.716695
vt 0.717538 0.975163
vt 0.385329 0.403035
vt 0.385329 0.449266
vt 0.383928 0.449266
vt 0.383928 0.403035
vt 0.736932 0.992598
vt 0.736931 0.736931
vt 0.738332 0.736931
vt 0.732715 0.731872
vt 0.732715 0.987539
vt 0.731314 0.987539
vt 0.731314 0.731872
vt 0.0401867 0.755894
vt 0.0387858 0.757295
vt 0.297255 0.757295
vt 0.295854 0.755894
vt 0.297255 0.708263
vt 0.271959 0.7299
vt 0.0134907 0.7299
vt 0.270558 0.728499
vt 0.370152 0.403035
vt 0.370152 0.452067
vt 0.368751 0.452067
vt 0.368751 0.403035
vt 0.0134907 0.72344
vt 0.271959 0.72344
vt 0.271959 0.724841
vt 0.0134907 0.724841
vt 0.363692 0.452067
vt 0.363692 0.403035
vt 0.365093 0.403035
vt 0.365093 0.452067
vt 0.726255 0.985281
vt 0.726255 0.726813
vt 0.727656 0.726813
vt 0.727656 0.985281
vt 0.37887 0.403035
vt 0.38027 0.449244
vt 0.37887 0.449287
vt 0.0134907 0.733558
vt 0.269158 0.733558
vt 0.269158 0.734959
vt 0.0134907 0.734959
vt 0.00983263 0.719782
vt 0.00983263 0.975449
vt 0.0084317 0.718381
vt 0.0560628 0.719782
vt 0.0574637 0.718381
vt 0.0084317 0.97685
vt 0.712921 0.63575
vt 0.712921 0.651441
vt 0.359191 0.651441
vt 0.359191 0.63575
vt 0.354975 0.669477
vt 0.354975 0.680965
vt 0.00124396 0.680965
vt 0.00124396 0.669477
vt 0.358748 0.691109
vt 0.358748 0.688027
vt 0.712479 0.688027
vt 0.712479 0.691109
vt 0.712479 0.681282
vt 0.712479 0.683803
vt 0.358748 0.683803
vt 0.358748 0.681282
vt 0.712921 0.671164
vt 0.712921 0.676767
vt 0.359191 0.676767
vt 0.359191 0.671164
vt 0.389739 0.355417
vt 0.00168634 0.355417
vt 0.00168634 0.00168634
vt 0.389739 0.00168634
vt 0.00124399 0.690258
vt 0.00124399 0.684654
vt 0.354975 0.684654
vt 0.354975 0.690258
vt 0.712479 0.694772
vt 0.712479 0.697294
vt 0.358748 0.697294
vt 0.358748 0.694772
vt 0.00124402 0.697854
vt 0.00124402 0.694772
vt 0.354975 0.694772
vt 0.354975 0.697854
vt 0.712479 0.655987
vt 0.712479 0.667474
vt 0.358748 0.667474
vt 0.358748 0.655987
vt 0.355417 0.649241
vt 0.355417 0.664931
vt 0.00168634 0.664931
vt 0.00168634 0.649241
vt 0.747892 0.00168634
vt 0.747892 0.361721
vt 0.394161 0.361721
vt 0.394161 0.00168634
vt 0.389545 0.364794
vt 0.387023 0.364794
vt 0.387023 0.361712
vt 0.389545 0.359191
vt 0.375536 0.361712
vt 0.375536 0.377402
vt 0.0155007 0.377402
vt 0.0155007 0.361712
vt 0.00401322 0.361712
vt 0.00149158 0.359191
vt 0.00149158 0.364794
vt 0.00401322 0.364794
vt 0.00149158 0.393721
vt 0.00401322 0.393721
vt 0.00401322 0.396803
vt 0.0155007 0.396803
vt 0.0155007 0.381113
vt 0.375536 0.381113
vt 0.375536 0.396803
vt 0.387023 0.396803
vt 0.387023 0.393721
vt 0.389545 0.393721
vt 0.389545 0.399325
vt 0.00149158 0.399325
vt 0.310287 0.995509
vt 0.310287 0.907251
vt 0.607981 0.907251
vt 0.607981 0.995509
vt 0.706577 0.701518
vt 0.706577 0.999212
vt 0.618319 0.999212
vt 0.618319 0.701518
vt 0.72344 0.489039
vt 0.72344 0.608117
vt 0.716436 0.608117
vt 0.716436 0.489039
vt 0.728499 0.608117
vt 0.728499 0.489039
vt 0.735504 0.489039
vt 0.735504 0.608117
vt 0.712921 0.496043
vt 0.359191 0.496043
vt 0.359191 0.489039
vt 0.712921 0.489039
vt 0.00124389 0.403035
vt 0.354975 0.403035
vt 0.354975 0.522113
vt 0.00124389 0.522113
vt 0.394161 0.485014
vt 0.394161 0.365936
vt 0.747892 0.365936
vt 0.747892 0.485014
vt 0.310287 0.810011
vt 0.310287 0.721754
vt 0.607981 0.721754
vt 0.607981 0.810011
vt 0.310287 0.814503
vt 0.607981 0.814503
vt 0.607981 0.90276
vt 0.310287 0.90276
vt 0.0134907 0.857695
vt 0.0134907 0.738617
vt 0.0204953 0.738617
vt 0.0204953 0.857695
vt 0.359191 0.623946
vt 0.712921 0.623946
vt 0.712921 0.630951
vt 0.359191 0.630951
vt 0.743935 0.612142
vt 0.743935 0.731219
vt 0.736931 0.731219
vt 0.736931 0.612142
vt 0.358748 0.500843
vt 0.712479 0.500843
vt 0.712479 0.619921
vt 0.358748 0.619921
vt 0.00124391 0.645216
vt 0.00124391 0.526138
vt 0.354975 0.526138
vt 0.354975 0.645216
f 1/1/1 2/2/2 3/3/3
f 3/3/3 4/4/4 1/1/1
f 5/5/5 6/6/6 7/7/7
f 7/7/7 8/8/8 5/5/5
f 9/9/9 10/10/10 11/11/11
f 11/11/11 12/12/12 9/9/9
f 13/13/13 14/14/14 15/15/15
f 15/15/15 16/16/16 13/13/13
f 17/17/17 18/18/18 19/19/19
f 19/19/19 20/20/20 17/17/17
f 21/21/21 22/22/22 23/23/23
f 23/23/23 24/24/24 21/21/21
f 25/25/25 26/26/26 27/27/27
f 27/27/27 28/28/28 25/25/25
f 29/29/29 30/30/30 31/31/31
f 31/31/31 32/32/32 29/29/29
f 33/33/33 34/34/34 35/35/35
f 36/36/36 33/33/33 35/35/35
f 36/36/36 35/35/35 37/37/37
f 38/38/38 36/36/36 37/37/37
f 38/38/38 37/37/37 39/39/39
f 38/38/38 39/39/39 34/34/34
f 40/40/40 38/38/38 34/34/34
f 40/40/40 34/34/34 33/33/33
f 41/41/41 42/42/42 43/43/43
f 43/43/43 44/44/44 41/41/41
f 45/45/45 46/46/46 47/47/47
f 47/47/47 48/48/48 45/45/45
f 49/49/49 50/50/50 51/51/51
f 51/51/51 52/52/52 49/49/49
f 53/53/53 54/54/54 55/55/55
f 55/55/55 56/56/56 53/53/53
f 57/57/57 58/58/58 59/59/59
f 59/59/59 60/60/60 57/57/57
f 61/61/61 62/62/62 63/63/63
f 64/64/64 65/65/65 66/66/66
f 66/66/66 67/67/67 64/64/64
f 68/68/68 69/69/69 70/70/70
f 71/71/71 68/68/68 70/70/70
f 71/71/71 70/70/70 72/72/72
f 72/73/72 73/74/73 74/75/74
f 75/76/75 76/77/76 77/78/77
f 77/78/77 78/79/78 75/76/75
f 79/80/79 80/81/80 81/82/81
f 81/82/81 82/83/82 79/80/79
f 83/84/83 84/85/84 85/86/85
f 85/86/85 86/87/86 83/84/83
f 87/88/87 88/89/88 89/90/89
f 89/90/89 90/91/90 87/88/87
f 91/92/91 92/93/92 93/94/93
f 94/95/94 95/96/95 96/97/96
f 96/97/96 97/98/97 94/95/94
f 98/99/98 99/100/99 100/101/100
f 101/102/101 98/99/98 100/101/100
f 101/102/101 100/101/100 102/103/102
f 103/104/103 100/101/100 99/100/99
f 104/105/104 105/106/105 106/107/106
f 106/107/106 107/108/107 104/105/104
f 108/109/108 109/110/109 110/111/110
f 110/111/110 111/112/111 108/109/108
f 112/113/112 113/114/113 114/115/114
f 114/115/114 115/116/115 112/113/112
f 116/117/116 117/118/117 118/119/118
f 118/119/118 119/120/119 116/117/116
f 120/121/120 121/122/121 122/123/122
f 122/123/122 123/124/123 120/121/120
f 124/125/124 125/126/125 126/127/126
f 126/127/126 127/128/127 124/125/124
f 128/129/128 129/130/129 130/131/130
f 130/131/130 131/132/131 128/129/128
f 132/133/132 133/134/133 134/135/134
f 134/135/134 135/136/135 132/133/132
f 136/137/136 137/138/137 138/139/138
f 138/139/138 139/140/139 136/137/136
f 140/141/140 141/142/141 142/143/142
f 142/143/142 143/144/143 140/141/140
f 144/145/144 145/146/145 146/147/146
f 146/147/146 147/148/147 144/145/144
f 148/149/148 149/150/149 150/151/150
f 150/151/150 151/152/151 148/149/148
f 152/153/152 153/154/153 154/155/154
f 155/156/155 152/153/152 154/155/154
f 155/156/155 154/155/154 156/157/156
f 157/158/157 158/159/158 159/160/159
f 156/157/156 157/158/157 159/160/159
f 155/156/155 156/157/156 159/160/159
f 155/156/155 159/160/159 160/161/160
f 161/162/161 155/156/155 160/161/160
f 162/163/162 161/162/161 160/161/160
f 162/163/162 160/161/160 163/164/163
f 164/165/164 165/166/165 166/167/166
f 167/168/167 168/169/168 169/170/169
f 167/168/167 169/170/169 170/171/170
f 171/172/171 172/173/172 173/174/173
f 171/172/171 173/174/173 174/175/174
f 170/171/170 171/172/171 174/175/174
f 167/168/167 170/171/170 174/175/174
f 166/167/166 167/168/167 174/175/174
f 166/167/166 174/175/174 175/176/175
f 164/165/164 166/167/166 175/176/175
f 176/177/176 177/178/177 178/179/178
f 178/179/178 179/180/179 176/177/176
f 180/181/180 181/182/181 182/183/182
f 182/183/182 183/184/183 180/181/180
f 184/185/184 185/186/185 186/187/186
f 186/187/186 187/188/187 184/185/184
f 188/189/188 189/190/189 190/191/190
f 190/191/190 191/192/191 188/189/188
f 192/193/192 193/194/193 194/195/194
f 194/195/194 195/196/195 192/193/192
f 196/197/196 197/198/197 198/199/198
f 198/199/198 199/200/199 196/197/196
f 200/201/200 201/202/201 202/203/202
f 202/203/202 203/204/203 200/201/200
f 204/205/204 205/206/205 206/207/206
f 206/207/206 207/208/207 204/205/204
f 208/209/208 209/210/209 210/211/210
f 210/211/210 211/212/211 208/209/208
f 212/213/212 213/214/213 214/215/214
f 214/215/214 215/216/215 212/213/212
f 216/217/216 217/218/217 218/219/218
f 218/219/218 219/220/219 216/217/216
f 220/221/220 221/222/221 222/223/222
f 222/223/222 223/224/223 220/221/220
f 224/225/224 225/226/225 226/227/226
f 226/227/226 227/228/227 224/225/224
f 228/229/228 229/230/229 230/231/230
f 230/231/230 231/232/231 228/229/228
